<mxfile host="app.diagrams.net" agent="Mozilla/5.0 (Windows NT 10.0; Win64; x64) AppleWebKit/537.36 (KHTML, like Gecko) Chrome/120.0.0.0 Safari/537.36 Edg/120.0.0.0" version="24.7.17">
  <diagram id="Mo_g4C2zIbTZzyghibA7" name="第 1 页">
    <mxGraphModel dx="1002" dy="577" grid="1" gridSize="10" guides="1" tooltips="1" connect="1" arrows="1" fold="1" page="1" pageScale="1" pageWidth="827" pageHeight="1169" math="0" shadow="0">
      <root>
        <mxCell id="0" />
        <mxCell id="1" parent="0" />
        <mxCell id="IHyZgZc1BjYnrlc0XGJv-57" style="edgeStyle=orthogonalEdgeStyle;rounded=0;orthogonalLoop=1;jettySize=auto;html=1;exitX=0.5;exitY=0;exitDx=0;exitDy=0;entryX=0;entryY=0;entryDx=0;entryDy=0;" edge="1" parent="1" source="IHyZgZc1BjYnrlc0XGJv-1" target="IHyZgZc1BjYnrlc0XGJv-1">
          <mxGeometry relative="1" as="geometry">
            <mxPoint x="90" y="50" as="targetPoint" />
            <Array as="points">
              <mxPoint x="90" y="60" />
              <mxPoint x="62" y="60" />
            </Array>
          </mxGeometry>
        </mxCell>
        <mxCell id="IHyZgZc1BjYnrlc0XGJv-1" value="IDLE" style="ellipse;whiteSpace=wrap;html=1;aspect=fixed;" vertex="1" parent="1">
          <mxGeometry x="50" y="80" width="80" height="80" as="geometry" />
        </mxCell>
        <mxCell id="IHyZgZc1BjYnrlc0XGJv-65" style="edgeStyle=orthogonalEdgeStyle;rounded=0;orthogonalLoop=1;jettySize=auto;html=1;exitX=0.5;exitY=0;exitDx=0;exitDy=0;entryX=0;entryY=0;entryDx=0;entryDy=0;" edge="1" parent="1" source="IHyZgZc1BjYnrlc0XGJv-3" target="IHyZgZc1BjYnrlc0XGJv-3">
          <mxGeometry relative="1" as="geometry">
            <mxPoint x="280" y="60" as="targetPoint" />
            <Array as="points">
              <mxPoint x="280" y="60" />
              <mxPoint x="252" y="60" />
            </Array>
          </mxGeometry>
        </mxCell>
        <mxCell id="IHyZgZc1BjYnrlc0XGJv-3" value="GET_TX_BD" style="ellipse;whiteSpace=wrap;html=1;aspect=fixed;" vertex="1" parent="1">
          <mxGeometry x="240" y="80" width="80" height="80" as="geometry" />
        </mxCell>
        <mxCell id="IHyZgZc1BjYnrlc0XGJv-4" value="SEND_CMD" style="ellipse;whiteSpace=wrap;html=1;aspect=fixed;" vertex="1" parent="1">
          <mxGeometry x="570" y="80" width="80" height="80" as="geometry" />
        </mxCell>
        <mxCell id="IHyZgZc1BjYnrlc0XGJv-60" style="edgeStyle=orthogonalEdgeStyle;rounded=0;orthogonalLoop=1;jettySize=auto;html=1;exitX=1;exitY=0.5;exitDx=0;exitDy=0;entryX=1;entryY=1;entryDx=0;entryDy=0;" edge="1" parent="1" source="IHyZgZc1BjYnrlc0XGJv-5" target="IHyZgZc1BjYnrlc0XGJv-5">
          <mxGeometry relative="1" as="geometry">
            <mxPoint x="680" y="300" as="targetPoint" />
            <Array as="points">
              <mxPoint x="680" y="300" />
              <mxPoint x="680" y="328" />
            </Array>
          </mxGeometry>
        </mxCell>
        <mxCell id="IHyZgZc1BjYnrlc0XGJv-5" value="RECIVE&lt;div&gt;_CMD&lt;/div&gt;" style="ellipse;whiteSpace=wrap;html=1;aspect=fixed;" vertex="1" parent="1">
          <mxGeometry x="570" y="260" width="80" height="80" as="geometry" />
        </mxCell>
        <mxCell id="IHyZgZc1BjYnrlc0XGJv-34" style="edgeStyle=orthogonalEdgeStyle;rounded=0;orthogonalLoop=1;jettySize=auto;html=1;exitX=0.5;exitY=1;exitDx=0;exitDy=0;entryX=0;entryY=1;entryDx=0;entryDy=0;" edge="1" parent="1" source="IHyZgZc1BjYnrlc0XGJv-6" target="IHyZgZc1BjYnrlc0XGJv-1">
          <mxGeometry relative="1" as="geometry" />
        </mxCell>
        <mxCell id="IHyZgZc1BjYnrlc0XGJv-35" value="trans_down" style="edgeLabel;html=1;align=center;verticalAlign=middle;resizable=0;points=[];" vertex="1" connectable="0" parent="IHyZgZc1BjYnrlc0XGJv-34">
          <mxGeometry x="-0.4297" y="2" relative="1" as="geometry">
            <mxPoint as="offset" />
          </mxGeometry>
        </mxCell>
        <mxCell id="IHyZgZc1BjYnrlc0XGJv-36" style="edgeStyle=orthogonalEdgeStyle;rounded=0;orthogonalLoop=1;jettySize=auto;html=1;exitX=0;exitY=0.5;exitDx=0;exitDy=0;entryX=1;entryY=0.5;entryDx=0;entryDy=0;" edge="1" parent="1" source="IHyZgZc1BjYnrlc0XGJv-6" target="IHyZgZc1BjYnrlc0XGJv-7">
          <mxGeometry relative="1" as="geometry" />
        </mxCell>
        <mxCell id="IHyZgZc1BjYnrlc0XGJv-37" value="trans_failed" style="edgeLabel;html=1;align=center;verticalAlign=middle;resizable=0;points=[];" vertex="1" connectable="0" parent="IHyZgZc1BjYnrlc0XGJv-36">
          <mxGeometry x="0.2267" y="1" relative="1" as="geometry">
            <mxPoint x="15" y="-1" as="offset" />
          </mxGeometry>
        </mxCell>
        <mxCell id="IHyZgZc1BjYnrlc0XGJv-58" style="edgeStyle=orthogonalEdgeStyle;rounded=0;orthogonalLoop=1;jettySize=auto;html=1;exitX=1;exitY=0.5;exitDx=0;exitDy=0;entryX=1;entryY=1;entryDx=0;entryDy=0;" edge="1" parent="1" source="IHyZgZc1BjYnrlc0XGJv-6" target="IHyZgZc1BjYnrlc0XGJv-6">
          <mxGeometry relative="1" as="geometry">
            <mxPoint x="670" y="450" as="targetPoint" />
            <Array as="points">
              <mxPoint x="670" y="450" />
              <mxPoint x="670" y="478" />
            </Array>
          </mxGeometry>
        </mxCell>
        <mxCell id="IHyZgZc1BjYnrlc0XGJv-6" value="DATA&lt;div&gt;_TRANSFER&lt;/div&gt;" style="ellipse;whiteSpace=wrap;html=1;aspect=fixed;" vertex="1" parent="1">
          <mxGeometry x="570" y="410" width="80" height="80" as="geometry" />
        </mxCell>
        <mxCell id="IHyZgZc1BjYnrlc0XGJv-38" style="edgeStyle=orthogonalEdgeStyle;rounded=0;orthogonalLoop=1;jettySize=auto;html=1;exitX=0;exitY=0.5;exitDx=0;exitDy=0;entryX=1;entryY=0.5;entryDx=0;entryDy=0;" edge="1" parent="1" source="IHyZgZc1BjYnrlc0XGJv-7" target="IHyZgZc1BjYnrlc0XGJv-8">
          <mxGeometry relative="1" as="geometry" />
        </mxCell>
        <mxCell id="IHyZgZc1BjYnrlc0XGJv-7" value="STOP" style="ellipse;whiteSpace=wrap;html=1;aspect=fixed;" vertex="1" parent="1">
          <mxGeometry x="374" y="410" width="80" height="80" as="geometry" />
        </mxCell>
        <mxCell id="IHyZgZc1BjYnrlc0XGJv-46" style="edgeStyle=orthogonalEdgeStyle;rounded=0;orthogonalLoop=1;jettySize=auto;html=1;exitX=0;exitY=1;exitDx=0;exitDy=0;entryX=0.5;entryY=1;entryDx=0;entryDy=0;" edge="1" parent="1" source="IHyZgZc1BjYnrlc0XGJv-8" target="IHyZgZc1BjYnrlc0XGJv-1">
          <mxGeometry relative="1" as="geometry" />
        </mxCell>
        <mxCell id="IHyZgZc1BjYnrlc0XGJv-47" value="send_done" style="edgeLabel;html=1;align=center;verticalAlign=middle;resizable=0;points=[];" vertex="1" connectable="0" parent="IHyZgZc1BjYnrlc0XGJv-46">
          <mxGeometry x="0.1923" y="-3" relative="1" as="geometry">
            <mxPoint as="offset" />
          </mxGeometry>
        </mxCell>
        <mxCell id="IHyZgZc1BjYnrlc0XGJv-8" value="STOP_SEND" style="ellipse;whiteSpace=wrap;html=1;aspect=fixed;" vertex="1" parent="1">
          <mxGeometry x="230" y="410" width="80" height="80" as="geometry" />
        </mxCell>
        <mxCell id="IHyZgZc1BjYnrlc0XGJv-61" style="edgeStyle=orthogonalEdgeStyle;rounded=0;orthogonalLoop=1;jettySize=auto;html=1;exitX=1;exitY=0.5;exitDx=0;exitDy=0;entryX=1;entryY=1;entryDx=0;entryDy=0;" edge="1" parent="1" source="IHyZgZc1BjYnrlc0XGJv-9" target="IHyZgZc1BjYnrlc0XGJv-9">
          <mxGeometry relative="1" as="geometry">
            <mxPoint x="500" y="300" as="targetPoint" />
            <Array as="points">
              <mxPoint x="500" y="300" />
              <mxPoint x="500" y="328" />
            </Array>
          </mxGeometry>
        </mxCell>
        <mxCell id="IHyZgZc1BjYnrlc0XGJv-62" style="edgeStyle=orthogonalEdgeStyle;rounded=0;orthogonalLoop=1;jettySize=auto;html=1;exitX=0.5;exitY=1;exitDx=0;exitDy=0;entryX=0.5;entryY=0;entryDx=0;entryDy=0;" edge="1" parent="1" source="IHyZgZc1BjYnrlc0XGJv-9" target="IHyZgZc1BjYnrlc0XGJv-7">
          <mxGeometry relative="1" as="geometry" />
        </mxCell>
        <mxCell id="IHyZgZc1BjYnrlc0XGJv-63" value="rec_failed" style="edgeLabel;html=1;align=center;verticalAlign=middle;resizable=0;points=[];" vertex="1" connectable="0" parent="IHyZgZc1BjYnrlc0XGJv-62">
          <mxGeometry x="-0.0792" relative="1" as="geometry">
            <mxPoint as="offset" />
          </mxGeometry>
        </mxCell>
        <mxCell id="IHyZgZc1BjYnrlc0XGJv-67" style="edgeStyle=orthogonalEdgeStyle;rounded=0;orthogonalLoop=1;jettySize=auto;html=1;exitX=0;exitY=0.5;exitDx=0;exitDy=0;entryX=1;entryY=1;entryDx=0;entryDy=0;" edge="1" parent="1" source="IHyZgZc1BjYnrlc0XGJv-9" target="IHyZgZc1BjYnrlc0XGJv-1">
          <mxGeometry relative="1" as="geometry" />
        </mxCell>
        <mxCell id="IHyZgZc1BjYnrlc0XGJv-68" value="resend_try_cnt &amp;gt;=` RESEND_MAX_TRY" style="edgeLabel;html=1;align=center;verticalAlign=middle;resizable=0;points=[];" vertex="1" connectable="0" parent="IHyZgZc1BjYnrlc0XGJv-67">
          <mxGeometry x="-0.0669" y="-2" relative="1" as="geometry">
            <mxPoint x="32" as="offset" />
          </mxGeometry>
        </mxCell>
        <mxCell id="IHyZgZc1BjYnrlc0XGJv-9" value="STOP&lt;div&gt;_RECIVE&lt;/div&gt;&lt;div&gt;_CDM&lt;/div&gt;" style="ellipse;whiteSpace=wrap;html=1;aspect=fixed;" vertex="1" parent="1">
          <mxGeometry x="400" y="260" width="80" height="80" as="geometry" />
        </mxCell>
        <mxCell id="IHyZgZc1BjYnrlc0XGJv-64" style="edgeStyle=orthogonalEdgeStyle;rounded=0;orthogonalLoop=1;jettySize=auto;html=1;exitX=0;exitY=0.5;exitDx=0;exitDy=0;entryX=0;entryY=1;entryDx=0;entryDy=0;" edge="1" parent="1" source="IHyZgZc1BjYnrlc0XGJv-10" target="IHyZgZc1BjYnrlc0XGJv-10">
          <mxGeometry relative="1" as="geometry">
            <mxPoint x="210" y="300" as="targetPoint" />
            <Array as="points">
              <mxPoint x="200" y="240" />
              <mxPoint x="200" y="268" />
            </Array>
          </mxGeometry>
        </mxCell>
        <mxCell id="IHyZgZc1BjYnrlc0XGJv-10" value="GET_RX_BD" style="ellipse;whiteSpace=wrap;html=1;aspect=fixed;" vertex="1" parent="1">
          <mxGeometry x="230" y="200" width="80" height="80" as="geometry" />
        </mxCell>
        <mxCell id="IHyZgZc1BjYnrlc0XGJv-18" value="" style="endArrow=classic;html=1;rounded=0;exitX=1;exitY=0;exitDx=0;exitDy=0;entryX=0;entryY=0.5;entryDx=0;entryDy=0;" edge="1" parent="1" source="IHyZgZc1BjYnrlc0XGJv-1" target="IHyZgZc1BjYnrlc0XGJv-3">
          <mxGeometry relative="1" as="geometry">
            <mxPoint x="300" y="200" as="sourcePoint" />
            <mxPoint x="400" y="200" as="targetPoint" />
          </mxGeometry>
        </mxCell>
        <mxCell id="IHyZgZc1BjYnrlc0XGJv-19" value="free_tx_bd" style="edgeLabel;resizable=0;html=1;;align=center;verticalAlign=middle;" connectable="0" vertex="1" parent="IHyZgZc1BjYnrlc0XGJv-18">
          <mxGeometry relative="1" as="geometry" />
        </mxCell>
        <mxCell id="IHyZgZc1BjYnrlc0XGJv-20" value="" style="endArrow=classic;html=1;rounded=0;exitX=1;exitY=0;exitDx=0;exitDy=0;entryX=0;entryY=0;entryDx=0;entryDy=0;" edge="1" parent="1" source="IHyZgZc1BjYnrlc0XGJv-3" target="IHyZgZc1BjYnrlc0XGJv-4">
          <mxGeometry relative="1" as="geometry">
            <mxPoint x="360" y="300" as="sourcePoint" />
            <mxPoint x="460" y="300" as="targetPoint" />
          </mxGeometry>
        </mxCell>
        <mxCell id="IHyZgZc1BjYnrlc0XGJv-21" value="bd_cnt &amp;gt; `READ_CYCLE - 1&lt;div&gt;&amp;amp;&amp;amp; tx_full = 1&lt;/div&gt;" style="edgeLabel;resizable=0;html=1;;align=center;verticalAlign=middle;" connectable="0" vertex="1" parent="IHyZgZc1BjYnrlc0XGJv-20">
          <mxGeometry relative="1" as="geometry" />
        </mxCell>
        <mxCell id="IHyZgZc1BjYnrlc0XGJv-22" value="" style="endArrow=classic;html=1;rounded=0;exitX=1;exitY=1;exitDx=0;exitDy=0;entryX=1;entryY=0;entryDx=0;entryDy=0;" edge="1" parent="1" source="IHyZgZc1BjYnrlc0XGJv-4" target="IHyZgZc1BjYnrlc0XGJv-5">
          <mxGeometry relative="1" as="geometry">
            <mxPoint x="360" y="300" as="sourcePoint" />
            <mxPoint x="460" y="300" as="targetPoint" />
          </mxGeometry>
        </mxCell>
        <mxCell id="IHyZgZc1BjYnrlc0XGJv-23" value="send_done" style="edgeLabel;resizable=0;html=1;;align=center;verticalAlign=middle;" connectable="0" vertex="1" parent="IHyZgZc1BjYnrlc0XGJv-22">
          <mxGeometry relative="1" as="geometry">
            <mxPoint y="10" as="offset" />
          </mxGeometry>
        </mxCell>
        <mxCell id="IHyZgZc1BjYnrlc0XGJv-26" value="" style="endArrow=classic;html=1;rounded=0;exitX=0.5;exitY=0;exitDx=0;exitDy=0;entryX=0.5;entryY=1;entryDx=0;entryDy=0;" edge="1" parent="1" source="IHyZgZc1BjYnrlc0XGJv-5" target="IHyZgZc1BjYnrlc0XGJv-4">
          <mxGeometry relative="1" as="geometry">
            <mxPoint x="360" y="300" as="sourcePoint" />
            <mxPoint x="460" y="300" as="targetPoint" />
          </mxGeometry>
        </mxCell>
        <mxCell id="IHyZgZc1BjYnrlc0XGJv-27" value="rec_failed" style="edgeLabel;resizable=0;html=1;;align=center;verticalAlign=middle;" connectable="0" vertex="1" parent="IHyZgZc1BjYnrlc0XGJv-26">
          <mxGeometry relative="1" as="geometry">
            <mxPoint y="-10" as="offset" />
          </mxGeometry>
        </mxCell>
        <mxCell id="IHyZgZc1BjYnrlc0XGJv-29" value="" style="endArrow=classic;html=1;rounded=0;exitX=0.5;exitY=1;exitDx=0;exitDy=0;entryX=0.5;entryY=0;entryDx=0;entryDy=0;" edge="1" parent="1" source="IHyZgZc1BjYnrlc0XGJv-5" target="IHyZgZc1BjYnrlc0XGJv-6">
          <mxGeometry relative="1" as="geometry">
            <mxPoint x="360" y="300" as="sourcePoint" />
            <mxPoint x="460" y="300" as="targetPoint" />
          </mxGeometry>
        </mxCell>
        <mxCell id="IHyZgZc1BjYnrlc0XGJv-30" value="rec_down" style="edgeLabel;resizable=0;html=1;;align=center;verticalAlign=middle;" connectable="0" vertex="1" parent="IHyZgZc1BjYnrlc0XGJv-29">
          <mxGeometry relative="1" as="geometry" />
        </mxCell>
        <mxCell id="IHyZgZc1BjYnrlc0XGJv-44" value="" style="edgeStyle=elbowEdgeStyle;elbow=horizontal;endArrow=classic;html=1;curved=0;rounded=0;endSize=8;startSize=8;entryX=1;entryY=0;entryDx=0;entryDy=0;" edge="1" parent="1" target="IHyZgZc1BjYnrlc0XGJv-4">
          <mxGeometry width="50" height="50" relative="1" as="geometry">
            <mxPoint x="650" y="120" as="sourcePoint" />
            <mxPoint x="660" y="90" as="targetPoint" />
            <Array as="points">
              <mxPoint x="710" y="110" />
            </Array>
          </mxGeometry>
        </mxCell>
        <mxCell id="IHyZgZc1BjYnrlc0XGJv-45" value="" style="edgeStyle=elbowEdgeStyle;elbow=horizontal;endArrow=classic;html=1;curved=0;rounded=0;endSize=8;startSize=8;entryX=0;entryY=0;entryDx=0;entryDy=0;" edge="1" parent="1" target="IHyZgZc1BjYnrlc0XGJv-8">
          <mxGeometry width="50" height="50" relative="1" as="geometry">
            <mxPoint x="230" y="450" as="sourcePoint" />
            <mxPoint x="240" y="420" as="targetPoint" />
            <Array as="points">
              <mxPoint x="200" y="450" />
            </Array>
          </mxGeometry>
        </mxCell>
        <mxCell id="IHyZgZc1BjYnrlc0XGJv-50" value="" style="endArrow=classic;html=1;rounded=0;exitX=1;exitY=0;exitDx=0;exitDy=0;entryX=0;entryY=1;entryDx=0;entryDy=0;" edge="1" parent="1" source="IHyZgZc1BjYnrlc0XGJv-9" target="IHyZgZc1BjYnrlc0XGJv-4">
          <mxGeometry width="50" height="50" relative="1" as="geometry">
            <mxPoint x="390" y="350" as="sourcePoint" />
            <mxPoint x="440" y="300" as="targetPoint" />
          </mxGeometry>
        </mxCell>
        <mxCell id="IHyZgZc1BjYnrlc0XGJv-51" value="rec_down" style="edgeLabel;html=1;align=center;verticalAlign=middle;resizable=0;points=[];" vertex="1" connectable="0" parent="IHyZgZc1BjYnrlc0XGJv-50">
          <mxGeometry x="-0.1253" y="-4" relative="1" as="geometry">
            <mxPoint as="offset" />
          </mxGeometry>
        </mxCell>
        <mxCell id="IHyZgZc1BjYnrlc0XGJv-53" value="" style="endArrow=classic;html=1;rounded=0;exitX=1;exitY=0;exitDx=0;exitDy=0;entryX=0;entryY=0.5;entryDx=0;entryDy=0;" edge="1" parent="1" source="IHyZgZc1BjYnrlc0XGJv-10" target="IHyZgZc1BjYnrlc0XGJv-4">
          <mxGeometry width="50" height="50" relative="1" as="geometry">
            <mxPoint x="390" y="350" as="sourcePoint" />
            <mxPoint x="440" y="300" as="targetPoint" />
          </mxGeometry>
        </mxCell>
        <mxCell id="IHyZgZc1BjYnrlc0XGJv-54" value="bd_cnt &amp;gt;= `READ_CYCLE - 1" style="edgeLabel;html=1;align=center;verticalAlign=middle;resizable=0;points=[];" vertex="1" connectable="0" parent="IHyZgZc1BjYnrlc0XGJv-53">
          <mxGeometry x="-0.1216" relative="1" as="geometry">
            <mxPoint as="offset" />
          </mxGeometry>
        </mxCell>
        <mxCell id="IHyZgZc1BjYnrlc0XGJv-55" value="" style="endArrow=classic;html=1;rounded=0;exitX=1;exitY=0.5;exitDx=0;exitDy=0;entryX=0;entryY=0;entryDx=0;entryDy=0;" edge="1" parent="1" source="IHyZgZc1BjYnrlc0XGJv-1" target="IHyZgZc1BjYnrlc0XGJv-10">
          <mxGeometry width="50" height="50" relative="1" as="geometry">
            <mxPoint x="390" y="350" as="sourcePoint" />
            <mxPoint x="440" y="300" as="targetPoint" />
          </mxGeometry>
        </mxCell>
        <mxCell id="IHyZgZc1BjYnrlc0XGJv-56" value="free_rx_bd" style="edgeLabel;html=1;align=center;verticalAlign=middle;resizable=0;points=[];" vertex="1" connectable="0" parent="IHyZgZc1BjYnrlc0XGJv-55">
          <mxGeometry x="-0.1199" y="-3" relative="1" as="geometry">
            <mxPoint as="offset" />
          </mxGeometry>
        </mxCell>
      </root>
    </mxGraphModel>
  </diagram>
</mxfile>
